<mxfile host="65bd71144e">
    <diagram id="RbO9EBuT2b-cLx3aLN48" name="Page-1">
        <mxGraphModel dx="2678" dy="1298" grid="1" gridSize="10" guides="1" tooltips="1" connect="1" arrows="1" fold="1" page="1" pageScale="1" pageWidth="850" pageHeight="1100" math="0" shadow="0">
            <root>
                <mxCell id="0"/>
                <mxCell id="1" parent="0"/>
                <mxCell id="2" value="" style="rounded=0;whiteSpace=wrap;html=1;" parent="1" vertex="1">
                    <mxGeometry x="160" y="1060" width="1830" height="1030" as="geometry"/>
                </mxCell>
                <mxCell id="3" style="edgeStyle=orthogonalEdgeStyle;rounded=0;orthogonalLoop=1;jettySize=auto;html=1;entryX=0.5;entryY=0;entryDx=0;entryDy=0;fillColor=#e3c800;strokeColor=#B09500;opacity=50;" parent="1" source="10" target="42" edge="1">
                    <mxGeometry relative="1" as="geometry">
                        <mxPoint x="1070" y="1770" as="targetPoint"/>
                        <Array as="points">
                            <mxPoint x="780" y="1426"/>
                            <mxPoint x="780" y="1730"/>
                            <mxPoint x="1120" y="1730"/>
                        </Array>
                    </mxGeometry>
                </mxCell>
                <mxCell id="4" style="edgeStyle=orthogonalEdgeStyle;rounded=0;orthogonalLoop=1;jettySize=auto;html=1;fillColor=#1ba1e2;strokeColor=#006EAF;entryX=0.5;entryY=0;entryDx=0;entryDy=0;opacity=50;" parent="1" source="10" target="21" edge="1">
                    <mxGeometry relative="1" as="geometry">
                        <Array as="points">
                            <mxPoint x="540" y="1426"/>
                            <mxPoint x="540" y="1680"/>
                            <mxPoint x="460" y="1680"/>
                        </Array>
                    </mxGeometry>
                </mxCell>
                <mxCell id="5" style="edgeStyle=orthogonalEdgeStyle;rounded=0;orthogonalLoop=1;jettySize=auto;html=1;entryX=0.5;entryY=0;entryDx=0;entryDy=0;fillColor=#1ba1e2;strokeColor=#006EAF;opacity=50;" parent="1" source="20" target="21" edge="1">
                    <mxGeometry relative="1" as="geometry">
                        <Array as="points">
                            <mxPoint x="980" y="1680"/>
                            <mxPoint x="460" y="1680"/>
                        </Array>
                    </mxGeometry>
                </mxCell>
                <mxCell id="6" style="edgeStyle=orthogonalEdgeStyle;rounded=0;orthogonalLoop=1;jettySize=auto;html=1;strokeWidth=3;fillColor=#6a00ff;strokeColor=#3700CC;entryX=0;entryY=0.25;entryDx=0;entryDy=0;exitX=0.25;exitY=0;exitDx=0;exitDy=0;" parent="1" source="10" target="20" edge="1">
                    <mxGeometry relative="1" as="geometry">
                        <Array as="points">
                            <mxPoint x="615" y="1291"/>
                        </Array>
                        <mxPoint x="490" y="1461" as="targetPoint"/>
                    </mxGeometry>
                </mxCell>
                <mxCell id="7" value="Groups to&lt;br&gt;Channels gRPC" style="edgeLabel;html=1;align=center;verticalAlign=middle;resizable=0;points=[];" parent="6" vertex="1" connectable="0">
                    <mxGeometry x="0.0863" y="2" relative="1" as="geometry">
                        <mxPoint x="-108" y="52" as="offset"/>
                    </mxGeometry>
                </mxCell>
                <mxCell id="8" style="edgeStyle=orthogonalEdgeStyle;rounded=0;orthogonalLoop=1;jettySize=auto;html=1;exitX=0.25;exitY=1;exitDx=0;exitDy=0;fillColor=#6a00ff;strokeColor=#3700CC;strokeWidth=3;entryX=0;entryY=0.75;entryDx=0;entryDy=0;" parent="1" source="10" target="15" edge="1">
                    <mxGeometry relative="1" as="geometry">
                        <mxPoint x="155" y="1481" as="targetPoint"/>
                    </mxGeometry>
                </mxCell>
                <mxCell id="9" value="Groups to&amp;nbsp;&lt;div&gt;Clients gRPC&lt;/div&gt;" style="edgeLabel;html=1;align=center;verticalAlign=middle;resizable=0;points=[];" parent="8" vertex="1" connectable="0">
                    <mxGeometry x="0.03" y="2" relative="1" as="geometry">
                        <mxPoint x="-37" y="-2" as="offset"/>
                    </mxGeometry>
                </mxCell>
                <mxCell id="10" value="Groups" style="rounded=0;whiteSpace=wrap;html=1;fontSize=26;fillColor=#6a00ff;strokeColor=#3700CC;fontColor=#ffffff;" parent="1" vertex="1">
                    <mxGeometry x="570" y="1371" width="180" height="110" as="geometry"/>
                </mxCell>
                <mxCell id="11" style="edgeStyle=orthogonalEdgeStyle;rounded=0;orthogonalLoop=1;jettySize=auto;html=1;exitX=0.25;exitY=0;exitDx=0;exitDy=0;entryX=0.25;entryY=1;entryDx=0;entryDy=0;fillColor=#d80073;strokeColor=#A50040;strokeWidth=3;" parent="1" source="15" target="20" edge="1">
                    <mxGeometry relative="1" as="geometry"/>
                </mxCell>
                <mxCell id="12" value="&lt;span style=&quot;font-size: 12px;&quot;&gt;Clients to&amp;nbsp;&lt;/span&gt;&lt;div&gt;&lt;span style=&quot;font-size: 12px;&quot;&gt;Channels&amp;nbsp;&lt;/span&gt;&lt;span style=&quot;font-size: 12px;&quot;&gt;gRPC&lt;/span&gt;&lt;/div&gt;" style="edgeLabel;html=1;align=center;verticalAlign=middle;resizable=0;points=[];" parent="11" vertex="1" connectable="0">
                    <mxGeometry x="0.097" y="1" relative="1" as="geometry">
                        <mxPoint x="-14" y="-7" as="offset"/>
                    </mxGeometry>
                </mxCell>
                <mxCell id="13" style="edgeStyle=orthogonalEdgeStyle;rounded=0;orthogonalLoop=1;jettySize=auto;html=1;fillColor=#1ba1e2;strokeColor=#006EAF;opacity=50;" parent="1" source="15" target="21" edge="1">
                    <mxGeometry relative="1" as="geometry">
                        <Array as="points">
                            <mxPoint x="980" y="1680"/>
                            <mxPoint x="460" y="1680"/>
                        </Array>
                    </mxGeometry>
                </mxCell>
                <mxCell id="14" style="edgeStyle=orthogonalEdgeStyle;rounded=0;orthogonalLoop=1;jettySize=auto;html=1;exitX=1;exitY=0.75;exitDx=0;exitDy=0;entryX=0.5;entryY=0;entryDx=0;entryDy=0;fillColor=#e3c800;strokeColor=#B09500;opacity=50;" parent="1" source="15" target="42" edge="1">
                    <mxGeometry relative="1" as="geometry">
                        <Array as="points">
                            <mxPoint x="1120" y="1584"/>
                        </Array>
                    </mxGeometry>
                </mxCell>
                <mxCell id="15" value="Clients" style="rounded=0;whiteSpace=wrap;html=1;fontSize=26;fillColor=#d80073;strokeColor=#A50040;fontColor=#ffffff;" parent="1" vertex="1">
                    <mxGeometry x="890" y="1501" width="180" height="110" as="geometry"/>
                </mxCell>
                <mxCell id="16" style="edgeStyle=orthogonalEdgeStyle;rounded=0;orthogonalLoop=1;jettySize=auto;html=1;exitX=0.75;exitY=1;exitDx=0;exitDy=0;entryX=0.75;entryY=0;entryDx=0;entryDy=0;fillColor=#1ba1e2;strokeColor=#006EAF;strokeWidth=3;" parent="1" source="20" target="15" edge="1">
                    <mxGeometry relative="1" as="geometry"/>
                </mxCell>
                <mxCell id="54" value="&lt;span style=&quot;font-size: 12px;&quot;&gt;Channels to&amp;nbsp;&lt;/span&gt;&lt;div&gt;&lt;span style=&quot;font-size: 12px;&quot;&gt;Clients&amp;nbsp;&lt;/span&gt;&lt;span style=&quot;font-size: 12px;&quot;&gt;gRPC&lt;/span&gt;&lt;/div&gt;" style="edgeLabel;html=1;align=center;verticalAlign=middle;resizable=0;points=[];" vertex="1" connectable="0" parent="16">
                    <mxGeometry x="-0.1472" y="2" relative="1" as="geometry">
                        <mxPoint x="3" y="-3" as="offset"/>
                    </mxGeometry>
                </mxCell>
                <mxCell id="18" style="edgeStyle=orthogonalEdgeStyle;rounded=0;orthogonalLoop=1;jettySize=auto;html=1;exitX=0;exitY=0.75;exitDx=0;exitDy=0;entryX=0.75;entryY=0;entryDx=0;entryDy=0;strokeWidth=3;fillColor=#1ba1e2;strokeColor=#006EAF;" parent="1" source="20" target="10" edge="1">
                    <mxGeometry relative="1" as="geometry">
                        <Array as="points">
                            <mxPoint x="705" y="1341"/>
                        </Array>
                        <mxPoint x="1140" y="1523.5" as="sourcePoint"/>
                        <mxPoint x="940" y="1241" as="targetPoint"/>
                    </mxGeometry>
                </mxCell>
                <mxCell id="19" value="Channels to&amp;nbsp;&lt;div&gt;Groups gRPC&lt;/div&gt;" style="edgeLabel;html=1;align=center;verticalAlign=middle;resizable=0;points=[];" parent="18" vertex="1" connectable="0">
                    <mxGeometry x="-0.5809" y="-2" relative="1" as="geometry">
                        <mxPoint x="-15" y="2" as="offset"/>
                    </mxGeometry>
                </mxCell>
                <mxCell id="20" value="Channels" style="rounded=0;whiteSpace=wrap;html=1;fontSize=26;fillColor=#1ba1e2;strokeColor=#006EAF;fontColor=#ffffff;" parent="1" vertex="1">
                    <mxGeometry x="890" y="1266" width="180" height="100" as="geometry"/>
                </mxCell>
                <mxCell id="21" value="Auth" style="rounded=0;whiteSpace=wrap;html=1;fontSize=30;fillColor=#a0522d;strokeColor=#6D1F00;fontStyle=1;fontColor=#ffffff;" parent="1" vertex="1">
                    <mxGeometry x="270" y="1820" width="380" height="170" as="geometry"/>
                </mxCell>
                <mxCell id="22" style="edgeStyle=orthogonalEdgeStyle;rounded=0;orthogonalLoop=1;jettySize=auto;html=1;entryX=0.5;entryY=0;entryDx=0;entryDy=0;fillColor=#1ba1e2;strokeColor=#006EAF;opacity=50;" parent="1" source="24" target="21" edge="1">
                    <mxGeometry relative="1" as="geometry">
                        <Array as="points">
                            <mxPoint x="290" y="1345"/>
                            <mxPoint x="290" y="1680"/>
                            <mxPoint x="460" y="1680"/>
                        </Array>
                    </mxGeometry>
                </mxCell>
                <mxCell id="23" style="edgeStyle=orthogonalEdgeStyle;rounded=0;orthogonalLoop=1;jettySize=auto;html=1;exitX=1;exitY=0.5;exitDx=0;exitDy=0;fillColor=#e3c800;strokeColor=#B09500;opacity=50;" parent="1" source="24" target="42" edge="1">
                    <mxGeometry relative="1" as="geometry">
                        <Array as="points">
                            <mxPoint x="510" y="1345"/>
                            <mxPoint x="510" y="1730"/>
                            <mxPoint x="1120" y="1730"/>
                        </Array>
                    </mxGeometry>
                </mxCell>
                <mxCell id="24" value="Users" style="rounded=0;whiteSpace=wrap;html=1;fontSize=26;fillColor=#e3c800;strokeColor=#B09500;fontColor=#000000;" parent="1" vertex="1">
                    <mxGeometry x="340" y="1290" width="150" height="110" as="geometry"/>
                </mxCell>
                <mxCell id="25" style="edgeStyle=orthogonalEdgeStyle;rounded=0;orthogonalLoop=1;jettySize=auto;html=1;fillColor=#1ba1e2;strokeColor=#006EAF;opacity=50;" parent="1" source="27" target="21" edge="1">
                    <mxGeometry relative="1" as="geometry">
                        <Array as="points">
                            <mxPoint x="290" y="1485"/>
                            <mxPoint x="290" y="1680"/>
                            <mxPoint x="460" y="1680"/>
                        </Array>
                    </mxGeometry>
                </mxCell>
                <mxCell id="26" style="edgeStyle=orthogonalEdgeStyle;rounded=0;orthogonalLoop=1;jettySize=auto;html=1;entryX=0.5;entryY=0;entryDx=0;entryDy=0;fillColor=#e3c800;strokeColor=#B09500;opacity=50;" parent="1" source="27" target="42" edge="1">
                    <mxGeometry relative="1" as="geometry">
                        <Array as="points">
                            <mxPoint x="510" y="1485"/>
                            <mxPoint x="510" y="1730"/>
                            <mxPoint x="1120" y="1730"/>
                        </Array>
                    </mxGeometry>
                </mxCell>
                <mxCell id="27" value="Domains" style="rounded=0;whiteSpace=wrap;html=1;fontSize=26;fillColor=#f0a30a;strokeColor=#BD7000;fontColor=#000000;" parent="1" vertex="1">
                    <mxGeometry x="335" y="1430" width="145" height="110" as="geometry"/>
                </mxCell>
                <mxCell id="28" style="edgeStyle=orthogonalEdgeStyle;rounded=0;orthogonalLoop=1;jettySize=auto;html=1;entryX=0.5;entryY=0;entryDx=0;entryDy=0;fillColor=#1ba1e2;strokeColor=#006EAF;" parent="1" target="21" edge="1">
                    <mxGeometry relative="1" as="geometry">
                        <mxPoint x="460" y="1680" as="sourcePoint"/>
                        <Array as="points">
                            <mxPoint x="460" y="1680"/>
                        </Array>
                    </mxGeometry>
                </mxCell>
                <mxCell id="29" style="edgeStyle=orthogonalEdgeStyle;rounded=0;orthogonalLoop=1;jettySize=auto;html=1;fillColor=#d5e8d4;strokeColor=#82b366;strokeWidth=3;" parent="1" source="39" target="20" edge="1">
                    <mxGeometry relative="1" as="geometry">
                        <Array as="points">
                            <mxPoint x="1170" y="1435"/>
                            <mxPoint x="1170" y="1316"/>
                        </Array>
                    </mxGeometry>
                </mxCell>
                <mxCell id="30" value="mGate to&amp;nbsp;&lt;div&gt;Channels gRPC&lt;/div&gt;" style="edgeLabel;html=1;align=center;verticalAlign=middle;resizable=0;points=[];" parent="29" vertex="1" connectable="0">
                    <mxGeometry x="-0.2129" y="-1" relative="1" as="geometry">
                        <mxPoint as="offset"/>
                    </mxGeometry>
                </mxCell>
                <mxCell id="31" style="edgeStyle=orthogonalEdgeStyle;rounded=0;orthogonalLoop=1;jettySize=auto;html=1;fillColor=#d5e8d4;strokeColor=#82b366;strokeWidth=3;" parent="1" source="39" target="15" edge="1">
                    <mxGeometry relative="1" as="geometry">
                        <Array as="points">
                            <mxPoint x="1170" y="1435"/>
                            <mxPoint x="1170" y="1556"/>
                        </Array>
                    </mxGeometry>
                </mxCell>
                <mxCell id="32" value="mGate to&amp;nbsp;&lt;div&gt;Clients gRPC&lt;/div&gt;" style="edgeLabel;html=1;align=center;verticalAlign=middle;resizable=0;points=[];" parent="31" vertex="1" connectable="0">
                    <mxGeometry x="0.0062" y="3" relative="1" as="geometry">
                        <mxPoint as="offset"/>
                    </mxGeometry>
                </mxCell>
                <mxCell id="33" style="edgeStyle=orthogonalEdgeStyle;rounded=0;orthogonalLoop=1;jettySize=auto;html=1;fillColor=#d80073;strokeColor=#A50040;strokeWidth=3;exitX=0;exitY=0.25;exitDx=0;exitDy=0;entryX=0.75;entryY=1;entryDx=0;entryDy=0;" parent="1" source="15" target="10" edge="1">
                    <mxGeometry relative="1" as="geometry">
                        <mxPoint x="65" y="1491" as="sourcePoint"/>
                        <mxPoint x="255" y="1291" as="targetPoint"/>
                        <Array as="points">
                            <mxPoint x="890" y="1530"/>
                            <mxPoint x="705" y="1530"/>
                        </Array>
                    </mxGeometry>
                </mxCell>
                <mxCell id="34" value="Clients to&amp;nbsp;&lt;div&gt;Groups gRPC&lt;/div&gt;" style="edgeLabel;html=1;align=center;verticalAlign=middle;resizable=0;points=[];" parent="33" vertex="1" connectable="0">
                    <mxGeometry x="0.1439" y="1" relative="1" as="geometry">
                        <mxPoint x="83" y="-1" as="offset"/>
                    </mxGeometry>
                </mxCell>
                <mxCell id="35" value="" style="group;fillColor=#647687;fontColor=#ffffff;strokeColor=#314354;" parent="1" vertex="1" connectable="0">
                    <mxGeometry x="1590" y="1140" width="280" height="850" as="geometry"/>
                </mxCell>
                <mxCell id="36" value="&lt;font style=&quot;font-size: 32px;&quot;&gt;Message BUS&lt;/font&gt;&lt;div&gt;&lt;br&gt;&lt;/div&gt;" style="rounded=0;whiteSpace=wrap;html=1;fontSize=40;fontStyle=5;verticalAlign=top;fillColor=#647687;strokeColor=#314354;fontColor=#ffffff;" parent="35" vertex="1">
                    <mxGeometry width="280" height="850.0000000000002" as="geometry"/>
                </mxCell>
                <mxCell id="37" value="&lt;ul&gt;&lt;li&gt;NATS&lt;/li&gt;&lt;li&gt;AMQP&lt;/li&gt;&lt;li&gt;KAFKA&lt;/li&gt;&lt;/ul&gt;" style="text;html=1;align=left;verticalAlign=middle;whiteSpace=wrap;rounded=0;fontStyle=1;fontSize=26;" parent="35" vertex="1">
                    <mxGeometry x="60.5" y="297.8436657681941" width="159" height="386.05121293800545" as="geometry"/>
                </mxCell>
                <mxCell id="38" value="" style="group;fillColor=#6d8764;fontColor=#ffffff;strokeColor=#3A5431;" parent="1" vertex="1" connectable="0">
                    <mxGeometry x="1220" y="1140" width="280" height="481" as="geometry"/>
                </mxCell>
                <mxCell id="39" value="mGATE" style="rounded=0;whiteSpace=wrap;html=1;fontSize=40;fontStyle=5;verticalAlign=top;fillColor=#6d8764;strokeColor=#3A5431;fontColor=#ffffff;" parent="38" vertex="1">
                    <mxGeometry width="280" height="480.99999999999994" as="geometry"/>
                </mxCell>
                <mxCell id="40" value="&lt;ul&gt;&lt;li&gt;MQTT&lt;/li&gt;&lt;li&gt;HTTP&lt;/li&gt;&lt;li&gt;Websocket&lt;/li&gt;&lt;li&gt;NATS&lt;/li&gt;&lt;li&gt;AMQP&lt;/li&gt;&lt;li&gt;KAFKA&lt;/li&gt;&lt;/ul&gt;" style="text;html=1;align=left;verticalAlign=middle;whiteSpace=wrap;rounded=0;fontStyle=1;fontSize=26;" parent="38" vertex="1">
                    <mxGeometry x="45" y="131.27021563342316" width="190" height="296.5734501347709" as="geometry"/>
                </mxCell>
                <mxCell id="41" value="" style="group;fillColor=#647687;fontColor=#ffffff;strokeColor=#314354;" parent="1" vertex="1" connectable="0">
                    <mxGeometry x="650" y="1820" width="940" height="170" as="geometry"/>
                </mxCell>
                <mxCell id="42" value="&lt;font style=&quot;font-size: 32px;&quot;&gt;Event BUS&lt;/font&gt;&lt;div&gt;&lt;br&gt;&lt;/div&gt;" style="rounded=0;whiteSpace=wrap;html=1;fontSize=40;fontStyle=5;verticalAlign=top;fillColor=#647687;strokeColor=#314354;fontColor=#ffffff;" parent="41" vertex="1">
                    <mxGeometry width="940.0000000000001" height="170" as="geometry"/>
                </mxCell>
                <mxCell id="43" value="&lt;ul&gt;&lt;li&gt;NATS&lt;/li&gt;&lt;/ul&gt;" style="text;html=1;align=left;verticalAlign=middle;whiteSpace=wrap;rounded=0;fontStyle=1;fontSize=26;" parent="41" vertex="1">
                    <mxGeometry x="176.94117647058823" y="85.00000000000006" width="128.65835294117647" height="49.71285714285714" as="geometry"/>
                </mxCell>
                <mxCell id="44" value="&lt;ul&gt;&lt;li&gt;AMQP&lt;/li&gt;&lt;/ul&gt;" style="text;html=1;align=left;verticalAlign=middle;whiteSpace=wrap;rounded=0;fontStyle=1;fontSize=26;" parent="41" vertex="1">
                    <mxGeometry x="376.00000000000006" y="85.00000000000006" width="128.65835294117647" height="49.71285714285714" as="geometry"/>
                </mxCell>
                <mxCell id="45" value="&lt;ul&gt;&lt;li&gt;KAFKA&lt;/li&gt;&lt;/ul&gt;" style="text;html=1;align=left;verticalAlign=middle;whiteSpace=wrap;rounded=0;fontStyle=1;fontSize=26;" parent="41" vertex="1">
                    <mxGeometry x="586.1176470588236" y="85.00000000000006" width="128.65835294117647" height="49.71285714285714" as="geometry"/>
                </mxCell>
                <mxCell id="46" value="" style="edgeStyle=orthogonalEdgeStyle;rounded=0;orthogonalLoop=1;jettySize=auto;html=1;entryX=0.5;entryY=0;entryDx=0;entryDy=0;fillColor=#1ba1e2;strokeColor=#006EAF;" parent="1" source="39" target="21" edge="1">
                    <mxGeometry relative="1" as="geometry">
                        <mxPoint x="1350" y="1621" as="sourcePoint"/>
                        <mxPoint x="390" y="1650" as="targetPoint"/>
                        <Array as="points">
                            <mxPoint x="1350" y="1680"/>
                            <mxPoint x="460" y="1680"/>
                        </Array>
                    </mxGeometry>
                </mxCell>
                <mxCell id="47" style="edgeStyle=orthogonalEdgeStyle;rounded=0;orthogonalLoop=1;jettySize=auto;html=1;exitX=1;exitY=0.75;exitDx=0;exitDy=0;entryX=0.5;entryY=0;entryDx=0;entryDy=0;fillColor=#e3c800;strokeColor=#B09500;opacity=50;" parent="1" source="20" target="42" edge="1">
                    <mxGeometry relative="1" as="geometry">
                        <Array as="points">
                            <mxPoint x="1120" y="1341"/>
                        </Array>
                    </mxGeometry>
                </mxCell>
                <mxCell id="48" value="Services Publish Events" style="text;html=1;align=center;verticalAlign=middle;whiteSpace=wrap;rounded=0;fontSize=17;fontStyle=5" parent="1" vertex="1">
                    <mxGeometry x="830" y="1700" width="210" height="30" as="geometry"/>
                </mxCell>
                <mxCell id="49" style="edgeStyle=orthogonalEdgeStyle;rounded=0;orthogonalLoop=1;jettySize=auto;html=1;exitX=0.25;exitY=0;exitDx=0;exitDy=0;entryX=1;entryY=0.75;entryDx=0;entryDy=0;opacity=50;" parent="1" source="42" target="27" edge="1">
                    <mxGeometry relative="1" as="geometry">
                        <Array as="points">
                            <mxPoint x="885" y="1780"/>
                            <mxPoint x="570" y="1780"/>
                            <mxPoint x="570" y="1512"/>
                        </Array>
                    </mxGeometry>
                </mxCell>
                <mxCell id="50" value="Services Consume Events" style="text;html=1;align=center;verticalAlign=middle;whiteSpace=wrap;rounded=0;fontSize=17;fontStyle=5" parent="1" vertex="1">
                    <mxGeometry x="610" y="1750" width="260" height="30" as="geometry"/>
                </mxCell>
                <mxCell id="51" value="LOAD BALANCER FOR SERVICES" style="rounded=0;whiteSpace=wrap;html=1;fontSize=25;" parent="1" vertex="1">
                    <mxGeometry x="300" y="1140" width="900" height="100" as="geometry"/>
                </mxCell>
                <mxCell id="52" style="edgeStyle=orthogonalEdgeStyle;rounded=0;orthogonalLoop=1;jettySize=auto;html=1;startArrow=block;startFill=1;strokeWidth=5;fillColor=#fa6800;strokeColor=#C73500;" parent="1" source="39" edge="1">
                    <mxGeometry relative="1" as="geometry">
                        <mxPoint x="1589" y="1380" as="targetPoint"/>
                    </mxGeometry>
                </mxCell>
                <mxCell id="53" value="AuthN/AuthZ gRPC" style="text;html=1;align=center;verticalAlign=middle;whiteSpace=wrap;rounded=0;fontSize=17;fontStyle=5" parent="1" vertex="1">
                    <mxGeometry x="310" y="1650" width="160" height="30" as="geometry"/>
                </mxCell>
            </root>
        </mxGraphModel>
    </diagram>
</mxfile>
